<svg width="370" height="370" viewBox="0 0 370 370" fill="none" xmlns="http://www.w3.org/2000/svg">
<rect width="370" height="370" rx="50" fill="#F4AA00"/>
<path d="M93.45 103.25V173.3C93.45 185.2 90.2 194.3 83.7 200.6C77.3 206.9 68.45 210.05 57.15 210.05C45.15 210.05 35.55 206.7 28.35 200C21.25 193.3 17.7 183.65 17.7 171.05H46.8C46.9 179.35 49.95 183.5 55.95 183.5C61.35 183.5 64.05 180.1 64.05 173.3V103.25H93.45ZM259.948 103.25L233.998 209H197.848L183.298 144.2L168.448 209H132.298L106.648 103.25H138.448L150.748 175.55L167.398 103.25H199.648L215.848 174.95L228.148 103.25H259.948ZM352.073 103.25V126.65H323.873V209H294.473V126.65H266.573V103.25H352.073Z" fill="white"/>
<path d="M115.34 269.48H129.44V275H108.5V233.3H115.34V269.48ZM149.5 275.54C146.38 275.54 143.56 274.84 141.04 273.44C138.52 272 136.54 270 135.1 267.44C133.66 264.84 132.94 261.84 132.94 258.44C132.94 255.08 133.68 252.1 135.16 249.5C136.64 246.9 138.66 244.9 141.22 243.5C143.78 242.1 146.64 241.4 149.8 241.4C152.96 241.4 155.82 242.1 158.38 243.5C160.94 244.9 162.96 246.9 164.44 249.5C165.92 252.1 166.66 255.08 166.66 258.44C166.66 261.8 165.9 264.78 164.38 267.38C162.86 269.98 160.78 272 158.14 273.44C155.54 274.84 152.66 275.54 149.5 275.54ZM149.5 269.6C151.26 269.6 152.9 269.18 154.42 268.34C155.98 267.5 157.24 266.24 158.2 264.56C159.16 262.88 159.64 260.84 159.64 258.44C159.64 256.04 159.18 254.02 158.26 252.38C157.34 250.7 156.12 249.44 154.6 248.6C153.08 247.76 151.44 247.34 149.68 247.34C147.92 247.34 146.28 247.76 144.76 248.6C143.28 249.44 142.1 250.7 141.22 252.38C140.34 254.02 139.9 256.04 139.9 258.44C139.9 262 140.8 264.76 142.6 266.72C144.44 268.64 146.74 269.6 149.5 269.6ZM186.742 241.4C189.302 241.4 191.562 241.92 193.522 242.96C195.522 243.96 197.082 245.22 198.202 246.74V241.94H205.102V275.54C205.102 278.58 204.462 281.28 203.182 283.64C201.902 286.04 200.042 287.92 197.602 289.28C195.202 290.64 192.322 291.32 188.962 291.32C184.482 291.32 180.762 290.26 177.802 288.14C174.842 286.06 173.162 283.22 172.762 279.62H179.542C180.062 281.34 181.162 282.72 182.842 283.76C184.562 284.84 186.602 285.38 188.962 285.38C191.722 285.38 193.942 284.54 195.622 282.86C197.342 281.18 198.202 278.74 198.202 275.54V270.02C197.042 271.58 195.462 272.9 193.462 273.98C191.502 275.02 189.262 275.54 186.742 275.54C183.862 275.54 181.222 274.82 178.822 273.38C176.462 271.9 174.582 269.86 173.182 267.26C171.822 264.62 171.142 261.64 171.142 258.32C171.142 255 171.822 252.06 173.182 249.5C174.582 246.94 176.462 244.96 178.822 243.56C181.222 242.12 183.862 241.4 186.742 241.4ZM198.202 258.44C198.202 256.16 197.722 254.18 196.762 252.5C195.842 250.82 194.622 249.54 193.102 248.66C191.582 247.78 189.942 247.34 188.182 247.34C186.422 247.34 184.782 247.78 183.262 248.66C181.742 249.5 180.502 250.76 179.542 252.44C178.622 254.08 178.162 256.04 178.162 258.32C178.162 260.6 178.622 262.6 179.542 264.32C180.502 266.04 181.742 267.36 183.262 268.28C184.822 269.16 186.462 269.6 188.182 269.6C189.942 269.6 191.582 269.16 193.102 268.28C194.622 267.4 195.842 266.12 196.762 264.44C197.722 262.72 198.202 260.72 198.202 258.44ZM217.566 237.56C216.326 237.56 215.286 237.14 214.446 236.3C213.606 235.46 213.186 234.42 213.186 233.18C213.186 231.94 213.606 230.9 214.446 230.06C215.286 229.22 216.326 228.8 217.566 228.8C218.766 228.8 219.786 229.22 220.626 230.06C221.466 230.9 221.886 231.94 221.886 233.18C221.886 234.42 221.466 235.46 220.626 236.3C219.786 237.14 218.766 237.56 217.566 237.56ZM220.926 241.94V275H214.086V241.94H220.926ZM246.586 241.4C249.186 241.4 251.506 241.94 253.546 243.02C255.626 244.1 257.246 245.7 258.406 247.82C259.566 249.94 260.146 252.5 260.146 255.5V275H253.366V256.52C253.366 253.56 252.626 251.3 251.146 249.74C249.666 248.14 247.646 247.34 245.086 247.34C242.526 247.34 240.486 248.14 238.966 249.74C237.486 251.3 236.746 253.56 236.746 256.52V275H229.906V241.94H236.746V245.72C237.866 244.36 239.286 243.3 241.006 242.54C242.766 241.78 244.626 241.4 246.586 241.4Z" fill="black"/>
</svg>
